<svg xmlns="http://www.w3.org/2000/svg" width="14" height="14" viewBox="0 0 14 14">
  <path id="Subtraction_45" data-name="Subtraction 45" d="M7,14A7,7,0,0,1,2.05,2.05a7,7,0,1,1,9.9,9.9A6.954,6.954,0,0,1,7,14ZM2,5.126v3.8h.979v-2.6a.957.957,0,0,1,.716-.42c.365,0,.55.215.55.639V8.924h.979v-2.6a.982.982,0,0,1,.716-.42c.365,0,.558.221.558.64V8.914l0,0h.981v-2.6c0-.8-.4-1.235-1.121-1.235a1.484,1.484,0,0,0-1.213.663A.985.985,0,0,0,4.107,5.08a1.481,1.481,0,0,0-1.13.525v-.48Zm8.13-.056A1.874,1.874,0,0,0,8.222,7,1.9,1.9,0,0,0,10.18,8.916a2.247,2.247,0,0,0,1.559-.595l-.49-.563a1.457,1.457,0,0,1-.994.381A1.023,1.023,0,0,1,9.2,7.319v-.01H12v-.32A1.856,1.856,0,0,0,10.127,5.07Zm.98,1.623H9.186a.962.962,0,0,1,.957-.882.945.945,0,0,1,.965.882Z" fill="#131313"/>
</svg>
