<svg xmlns="http://www.w3.org/2000/svg" width="14" height="14" viewBox="0 0 14 14">
  <path id="Subtraction_44" data-name="Subtraction 44" d="M7,14A7,7,0,0,1,2.05,2.05a7,7,0,1,1,9.9,9.9A6.954,6.954,0,0,1,7,14ZM4.443,3.264c.031.7.046,1.279.046,1.726v5.862h.87V7.94l.023-.054h.085l.016.023a1.579,1.579,0,0,0,.666.613,2.133,2.133,0,0,0,.967.219,2.325,2.325,0,0,0,.9-.177,2.5,2.5,0,0,0,.778-.516,2.384,2.384,0,0,0,.558-.905A3.722,3.722,0,0,0,9.557,5.86a2.95,2.95,0,0,0-.635-1.953,2.047,2.047,0,0,0-1.637-.759,2.055,2.055,0,0,0-1.9,1.025L5.352,4.2H5.274l-.061-.932Zm2.5,4.807a1.54,1.54,0,0,1-.971-.331,1.615,1.615,0,0,1-.57-.87,1.773,1.773,0,0,1-.046-.424V5.5a1.651,1.651,0,0,1,.069-.408A1.657,1.657,0,0,1,6,4.184a1.529,1.529,0,0,1,.987-.35,1.5,1.5,0,0,1,1.209.577,2.3,2.3,0,0,1,.47,1.494,2.467,2.467,0,0,1-.47,1.575A1.523,1.523,0,0,1,6.946,8.071Z" fill="#131313"/>
</svg>
