<svg xmlns="http://www.w3.org/2000/svg" width="13.819" height="13.819" viewBox="0 0 13.819 13.819">
  <g id="Group_202" data-name="Group 202" transform="translate(-1804.181 -1045.09)">
    <g id="Group_201" data-name="Group 201">
      <path id="Path_77" data-name="Path 77" d="M6.91.892A6.018,6.018,0,0,0,2.654,11.165a6.018,6.018,0,1,0,8.511-8.511A5.979,5.979,0,0,0,6.91.892M6.91,0A6.91,6.91,0,1,1,0,6.91,6.91,6.91,0,0,1,6.91,0Z" transform="translate(1804.181 1045.09)" fill="#131313"/>
      <path id="Subtraction_43" data-name="Subtraction 43" d="M2.393,9.74A5.137,5.137,0,0,1,0,9.149L4.63,0A5.139,5.139,0,0,1,6.716,1.858,5.127,5.127,0,0,1,2.393,9.74Z" transform="translate(1808.698 1047.386)" fill="#131313"/>
    </g>
  </g>
</svg>
