<svg xmlns="http://www.w3.org/2000/svg" width="18.985" height="18.511" viewBox="0 0 18.985 18.511">
  <path id="Icon_awesome-github" data-name="Icon awesome-github" d="M6.35,15.467c0,.077-.088.138-.2.138-.126.011-.214-.05-.214-.138s.088-.138.2-.138S6.35,15.379,6.35,15.467Zm-1.19-.172c-.027.077.05.165.165.188a.18.18,0,0,0,.237-.077c.023-.077-.05-.165-.165-.2A.2.2,0,0,0,5.16,15.295Zm1.692-.065c-.111.027-.188.1-.176.188s.111.126.226.1.188-.1.176-.176S6.962,15.218,6.851,15.23ZM9.37.563A9.178,9.178,0,0,0,0,9.9a9.6,9.6,0,0,0,6.488,9.156c.49.088.662-.214.662-.463s-.011-1.546-.011-2.35c0,0-2.679.574-3.242-1.141,0,0-.436-1.114-1.064-1.4,0,0-.877-.6.061-.589a2.02,2.02,0,0,1,1.477.988,2.023,2.023,0,0,0,2.79.8,2.127,2.127,0,0,1,.612-1.29c-2.14-.237-4.3-.547-4.3-4.23a2.9,2.9,0,0,1,.9-2.254,3.616,3.616,0,0,1,.1-2.6c.8-.249,2.641,1.033,2.641,1.033a9.042,9.042,0,0,1,4.807,0s1.841-1.286,2.641-1.033a3.615,3.615,0,0,1,.1,2.6,2.975,2.975,0,0,1,.988,2.254c0,3.694-2.254,3.988-4.394,4.23a2.264,2.264,0,0,1,.651,1.776c0,1.29-.011,2.886-.011,3.2,0,.249.176.551.662.463A9.508,9.508,0,0,0,18.985,9.9,9.385,9.385,0,0,0,9.37.563Zm-5.65,13.2c-.05.038-.038.126.027.2s.149.088.2.038.038-.126-.027-.2S3.77,13.714,3.72,13.764Zm-.413-.31c-.027.05.011.111.088.149a.114.114,0,0,0,.165-.027c.027-.05-.011-.111-.088-.149C3.4,13.4,3.334,13.416,3.307,13.454Zm1.24,1.363c-.061.05-.038.165.05.237.088.088.2.1.249.038s.027-.165-.05-.237C4.712,14.767,4.6,14.755,4.547,14.816Zm-.436-.563c-.061.038-.061.138,0,.226s.165.126.214.088a.175.175,0,0,0,0-.237C4.272,14.242,4.172,14.2,4.111,14.254Z" transform="translate(0 -0.563)"/>
</svg>
