<svg xmlns="http://www.w3.org/2000/svg" width="18.985" height="18.985" viewBox="0 0 18.985 18.985">
  <path id="Icon_awesome-telegram" data-name="Icon awesome-telegram" d="M9.492.563a9.492,9.492,0,1,0,9.492,9.492A9.491,9.491,0,0,0,9.492.563Zm4.662,6.5L12.6,14.407c-.115.521-.425.647-.857.4L9.366,13.06l-1.144,1.1a.6.6,0,0,1-.478.233l.168-2.415,4.4-3.973c.191-.168-.042-.264-.295-.1L6.58,11.333,4.237,10.6c-.509-.161-.521-.509.107-.754L13.5,6.319c.425-.153.8.1.658.746Z" transform="translate(0 -0.563)"/>
</svg>
