<svg id="emoji-smile" xmlns="http://www.w3.org/2000/svg" width="20" height="20" viewBox="0 0 20 20">
  <path id="Path_2" data-name="Path 2" d="M10,18.75A8.75,8.75,0,1,0,1.25,10,8.75,8.75,0,0,0,10,18.75ZM10,20A10,10,0,1,0,0,10,10,10,0,0,0,10,20Z" fill-rule="evenodd"/>
  <path id="Path_3" data-name="Path 3" d="M9.391,21.459a.625.625,0,0,1,.854.229,4.377,4.377,0,0,0,7.58,0,.625.625,0,1,1,1.082.625,5.627,5.627,0,0,1-9.745,0,.625.625,0,0,1,.229-.854Z" transform="translate(-4.035 -9.5)" fill-rule="evenodd"/>
  <path id="Path_4" data-name="Path 4" d="M13.75,13.125C13.75,14.16,13.19,15,12.5,15s-1.25-.84-1.25-1.875.56-1.875,1.25-1.875S13.75,12.09,13.75,13.125Zm5,0C18.75,14.16,18.19,15,17.5,15s-1.25-.84-1.25-1.875.56-1.875,1.25-1.875S18.75,12.09,18.75,13.125Z" transform="translate(-5 -5)"/>
</svg>
