<svg xmlns="http://www.w3.org/2000/svg" width="277.11" height="60.34" viewBox="0 0 277.11 60.34">
  <g id="Group_104" data-name="Group 104" transform="translate(-813.89 -62.83)">
    <g id="Group_3" data-name="Group 3" transform="translate(647 -159)">
      <text id="my_hobby_blog" data-name="my hobby blog" transform="translate(256 261)" fill="#fff" font-size="24" font-family="RobotoMono-Bold, Roboto Mono" font-weight="700"><tspan x="0" y="0">my hobby blog</tspan></text>
    </g>
    <g id="Group_103" data-name="Group 103" transform="translate(204.012 -1110.76)">
      <g id="Warstwa_2" data-name="Warstwa 2" transform="translate(613.499 1176.139)">
        <path id="Path_82" data-name="Path 82" d="M663.222,1632.506l4.107.632,2.487,2.225,2.119,2.088,2.124,4.617.231,3.625-1.436,4.612-1.861,2.138-2.237.688-3.355-.166-4.854-3.952-2.939-6.194L656,1640.748l.628-4.317,1.884-3.061,3.127-1.246Z" transform="translate(-656 -1598.679)" fill="#7f64ff"/>
        <path id="Path_83" data-name="Path 83" d="M1200.082,1454l2.276.863,5.966,1.884,2.32-.54.977.383v1.94l.471,6.773.314,9.655.386,5.127.477,1.466a7.689,7.689,0,0,0-4.282-.741c-2.232.348-6.157-1.3-6.157-1.3l-3.752.164-1.488-.357-1.2-.906-.392-.393,1.256-1.177,1.805-4.239,1.727-10.2-.235-5.416Z" transform="translate(-1153.613 -1434.538)" fill="#7f64ff"/>
        <path id="Path_84" data-name="Path 84" d="M959.218,1335l4.564.61,7.211.646,2.355.863,1.277.769.293,1.507.863,6.986-1.156,7.51-2.219,8.346-1.413,4.317.179.889-2.063-.5-.942-.314-.55-5.338.587-2.973.071-2.146-.776-1.041-1.138-1.14-.314-2.669-1.805-3.689-3.375-2.355-1.648-.546a1.916,1.916,0,0,0-1.727-.082c-.706.471-1.491-1.177-1.491-1.177l.5-.86,2.012-4.164Z" transform="translate(-932.452 -1324.879)" fill="#9e8aff"/>
        <path id="Path_85" data-name="Path 85" d="M895.375,1468.752l-4.686,3.227-.7.538-1.156-4.911-.785-6.437-1.805-4.527-4.393-3.266L878,1449.631l4.16-3.14,1.648-1.491.471.235.549.707.785.078.471-.235s.314-.236,1.02.157.706.706.706.706l2.878.8,3.137,4.257.579,4.283.706,3.541.942,7.135Z" transform="translate(-860.574 -1426.245)" fill="#c0b4ff"/>
        <path id="Path_86" data-name="Path 86" d="M776.336,1392.42l7.884.525,5.567-.525,1.942-.7-.736,2.141-1.492,2.2-4.239,3.061-4.082,2.355-3.319,2.873-1.526-.194-.336-4.8Z" transform="translate(-766.581 -1377.146)" fill="#7f64ff"/>
        <path id="Path_87" data-name="Path 87" d="M1177.205,1219.992l-6.951,6.063-4.051,2.035h-4.749l-5.65-2.186-.374,2.989v10.992l-2.808,7.51-1.4,2.434-3.1-.449-1.011-.76,1.011-3.52,2.826-10.7.942-9.235-1.67-6.49-1.862-1,.87-1.491,4.911-6.387,6.084-3.734,1.8.006,2.327,4.67.88,2.07.314,1.02.275.528.51.257.314.236.549.235,6.986,2.236Z" transform="translate(-1108.57 -1206.056)" fill="#7f64ff"/>
        <path id="Path_88" data-name="Path 88" d="M709.972,1556.761a15.316,15.316,0,0,0-1.972,1.4,10.034,10.034,0,0,0,1.972.729h3.347l3.865,1.548,3.069,2.6s3.446,4.625,3.524,4.939,1.884,5.495,1.884,5.495l.889,4.5-.025,2.487h1.268l1.479-1.256.157-1.648-.363-1.856.677-6.308-4.474-8.791-8.5-4.719-5.173.243Z" transform="translate(-703.918 -1528.421)" fill="#8a70ff"/>
        <path id="Path_89" data-name="Path 89" d="M892.664,1257.057l-2.023,1.724,3.561.851,4.364.38,1.523-1.165.879-2.84L898.2,1255Z" transform="translate(-872.222 -1251.158)" fill="#9078ff"/>
      </g>
      <g id="Warstwa_1" data-name="Warstwa 1" transform="translate(609.879 1173.59)">
        <path id="Path_90" data-name="Path 90" d="M1525.24,1466.341c-2.359,12.374-.952-17.644-.763-19.39-.153-.763,1.239-.078,1.268-1.136a20.55,20.55,0,0,1-.028,3.18C1525.388,1454.775,1525.505,1460.545,1525.24,1466.341Z" transform="translate(-1452.144 -1424.446)" fill="#5e3dff"/>
        <path id="Path_91" data-name="Path 91" d="M683.61,1194.376c-.017.464-.33.053-.487-.113-1.376-.426-.659-1.773-.745-3.2-1.064.843-5.272,5.925-8.764,6.764-3.135-.422.321,16.949-.373,20.408-.539,6.007,1.168,2.517,4.613.621,2.348-2.037,5.82-1.942,1.71.833-9.631,7.054-7.343,4.74-8.017-5.221-.089-5.149-.807-10.251-.642-15.412-.087-.815-1.527-.011-2.111-.2a12.493,12.493,0,0,1-6.524-1.779c-.239-.247-1.534-.972-1.233-.328,1.689,6.392,0,17.88-4.217,22.88.334.338,1.935,2.042,1.476,1.14-.466-.355.894-.681.567-1.424,2.133.553,4.781.448,6.593,1.48.155.286.368.315,0,0-.3-.779,8.731,1.352,4.87,2.3a91.049,91.049,0,0,1-20.71-4.236c-3.383,2.094-7.537,4.829-9.9,8.07-4.861,7.088-15.544,8.74-23.027,5.088-5.747-5.932-9.388-16.363-4.575-23.736,4.823-6.358,11.276-3.787,10.053-7.657.076-3.309-.026-6.968.249-10.04,4.854-6.375,12.555-11.339,20.273-11.315,2.823-4.13,7.843-5.434,12.562-5.537,2.156-.169,2.626-.333,4.121,1.168-1.162-1.249-.545-1.884.793-.757-.238-1.242,2.867.216,3.35.106,4.186.589,5.882,3.808,7.062,7.536a3.48,3.48,0,0,1,.141,2.215.888.888,0,0,0,1.677-.036c.463.563-.193.673-.635.907.356.476,1.065-.28,1.074-.724,4.7,1.909,12.984,3.9,10.5,9.112.03-.08-.008-.181-.114-.134-.278.161-.358-.266-.586-.166-.131.219.374.307.183.589C683.026,1193.793,683.716,1193.792,683.61,1194.376ZM666.4,1221.766c-.105-.153-.175-.048,0,0C666.445,1221.942,666.551,1221.872,666.4,1221.766Zm1.335-43.012c-.963-2.667-2.648-2.129-4.975-.327-3.116,2.269-6.631,4.654-8.018,8.426,5.05,6.276,2.365,21.253-.752,28.867-2.476,3.164-.417,2.765,2.467,2.983a35.214,35.214,0,0,0,2.229-9.259c3.585-19.922-5.594-14.13,10.389-11.915a18.251,18.251,0,0,0,11.976-7.944C676.788,1186.542,668.731,1186.587,667.732,1178.754Zm-21.819,22.6c-1.3-1.875-3.987-4.456-6.83-5.174.233-.307.581-.557.4-1.041.613-1.365,5.646,2.477,6.827,4.178,1.027,1.785,3.159,4.7,2.265,6.479,1.748,2.841,1.411,7.149,1.409,10.814-.006.718.894,1.751,1.409.991.9-4.921,3.351-9.439,3.849-14.44a36.934,36.934,0,0,0-.055-11.431c.214-3.716-2.511-2.746-5.186-3.287-2.92-.745-6.308-.506-9.01-1.594-.54-.469-.53,1.072-.724,1.384-.618,1.954-.616,4.659-2.274,5.939-.384.046-.644.625-.538,1a.858.858,0,0,0,1.671-.2c.7,1.321-1.2,1.337-1.793.667-.319-.74-1.3.127-1.222.713-1.485,1.123-3.025,2.17-4.553,3.235,5.977,3.355,11.165,8.575,11.284,15.838.215,7.109-.348,6.592,5.356,2.552.139-2.68-.971-5.823-.78-8.694.9-.641-.454-1.654.054-1.69.276.149.5.731.82.626-1.075-.95-.734-2.285.589-.871.608.28-1.07-1.864-1.61-.187A22.766,22.766,0,0,0,645.913,1201.358Zm-19.522-8.618c-.658.077-2.4-.827-2.479.021.251,2.854-.348,5.719.035,8.578-.156,2.7,5.208-2.8,6.961-3.283,2.312-1.767,6.6-2.744,6.639-6.118C633.461,1193.94,630.7,1193.188,626.391,1192.74Zm2.553,11.081c7.787,3.518,13.311,12.61,10.162,21.1,1.153-.894,2.974-1.779,2.271-3.39-.279-4.561-.077-9.475-2.749-13.493-1.979-3.225-5.609-5.57-8.717-7.316C627.192,1202.888,623.967,1202.722,628.944,1203.821Zm13.751-17.84c15.98,2.367,4.8.26,20.094-9.341,4.468-1.974-14.115-2.3-15.843.559-2.947,1.977-4.4,5.35-5.849,8.456C640.7,1186.441,642.275,1185.852,642.7,1185.981Zm-8.237-2.349a33.3,33.3,0,0,1,5.5.594c.068-.789,1.8-2.347,1.031-2.72C639.117,1180.864,631.264,1183.058,634.458,1183.632Zm-4.164,7.593c2.193.292,4.157.372,6.126-.75.8-.211,1.734-.267,1.884-1.206.434-2.379,2.289-4.39-1.318-3.988-3.611-.375-6.79-.906-9.357,2.2C621.933,1191.381,625.36,1191.109,630.294,1191.224Zm8.035,29.519c.389-9.385-9.766-19.468-19.1-15.3-2.124.682,7.622-.788,10.854,3.874a30.476,30.476,0,0,1,6.955,17.439c-.544,1.707.364.383,1.083-.215C639.38,1224.991,637.934,1222.655,638.329,1220.744Zm-26.406-1.26c.656,7.162,6.9,13.665,14.448,12.46,6.807.011,11.482-3.522,7.942-10.493-1.737-4.187-2.984-9.077-6.618-12.058C618.581,1203.881,609.447,1207.983,611.923,1219.484Zm41.934-32.527a.494.494,0,0,0-.224.44A.44.44,0,0,0,653.858,1186.957Zm-5.926,16.371c-.015-.056-.035-.071-.089-.044C647.861,1203.334,647.876,1203.357,647.932,1203.328Zm19.117,19.115c0-.026-.013-.029-.035-.031C667.017,1222.437,667.019,1222.463,667.048,1222.442Zm-13.054-13.059c-.024.01-.029.02-.01.041C654,1209.409,654.035,1209.393,653.994,1209.384Zm-6.458-6.425c0,.025.013.029.035.031C647.568,1202.964,647.566,1202.938,647.536,1202.958Zm6.593,6.593c0,.026.013.03.036.031C654.162,1209.557,654.16,1209.53,654.129,1209.551Zm11.777,11.742c-.015-.054-.056.035-.013.025C665.9,1221.314,665.9,1221.3,665.907,1221.293Zm-11.335-11.336c-.007-.025-.02-.028-.044-.021C654.538,1209.96,654.548,1209.983,654.572,1209.957Zm10.592-33.842c-.039-.033-.045.053,0,.024C665.165,1176.136,665.163,1176.123,665.163,1176.115Zm-17.44,27.031c.025-.012.026-.026,0-.042C647.707,1203.122,647.684,1203.14,647.723,1203.147Zm-.972-.973c0,.026.013.03.036.031C646.784,1202.179,646.782,1202.152,646.752,1202.174Zm18.623-25.833c-.024.01-.029.02-.01.041C665.385,1176.367,665.415,1176.351,665.375,1176.341Zm.165.2c.025-.012.026-.026,0-.042C665.523,1176.515,665.5,1176.533,665.54,1176.54Zm2.433,2.433c.024-.012.025-.025,0-.041C667.957,1178.949,667.934,1178.966,667.973,1178.973Zm-1.291,43.082c-.009,0-.022,0-.026.006C666.625,1222.108,666.717,1222.094,666.682,1222.055Zm1.7-42.7c0-.026-.013-.03-.036-.031C668.351,1179.348,668.353,1179.374,668.383,1179.353Zm.216.246c.024-.011.025-.025,0-.04C668.584,1179.576,668.561,1179.593,668.6,1179.6Zm-4.378-4.426c-.04-.034-.045.053,0,.024C664.223,1175.194,664.221,1175.182,664.222,1175.173Zm.133.148c-.024.01-.028.02-.01.04C664.364,1175.347,664.394,1175.331,664.354,1175.321Zm4.4,4.395c-.008.005-.021.009-.023.017C668.727,1179.78,668.806,1179.723,668.75,1179.716Zm.185.181c-.007-.025-.02-.028-.043-.02C668.9,1179.9,668.911,1179.923,668.935,1179.9Zm.388.379c-.038-.033-.044.052,0,.023C669.324,1180.3,669.322,1180.283,669.323,1180.276Zm-4.755-4.709c0,.026.013.03.036.031C664.6,1175.572,664.6,1175.545,664.568,1175.567Zm5.123,5.091c-.008.005-.021.01-.023.017C669.668,1180.723,669.748,1180.664,669.691,1180.658Zm.185.182c-.007-.025-.02-.028-.043-.021C669.843,1180.842,669.853,1180.865,669.877,1180.839Z" transform="translate(-609.879 -1173.591)" fill="#5e3dff"/>
        <path id="Path_92" data-name="Path 92" d="M1309.177,1348.394c-3.47.641-7.821.652-9.78-2.83-2.29-7.166,7.956-6.13,11.493-3.135C1313.015,1344.233,1311.377,1348.022,1309.177,1348.394Zm-1.243-5.822c-1.6-.244-6.217-2.121-5.8.257C1302.573,1344.155,1309.087,1343.419,1307.933,1342.572Zm-.56,4.732a2.487,2.487,0,0,0,2.893-2.764c-.1-.5-.137-.518-.606-.316-2.473.956-5.574,1.39-8.014.17C1299.042,1341.866,1301.2,1348.437,1307.373,1347.3Z" transform="translate(-1244.969 -1327.071)" fill="#5e3dff"/>
        <path id="Path_93" data-name="Path 93" d="M664.75,1626.366c8.826,3.318,11.852,22.589-1.021,21.173C652.034,1646.268,646.995,1621.783,664.75,1626.366Zm4.8,16.815.307-1.566m.163-.946c2.327-14.373-16.191-17.865-14.958-6.973.224,1.356-.559.116-1.284,1.34.323.77,1.874,1.624.507.3.355-3.627,3.092,7.569,4.687,7.9,1.672,1.526,4.625,2.243,6.077,2.674-.549.3.639,1.26.883,1.225-1.242-1.423-.537-2.195.846-.708-.081-.487-.613-.489-.616-.962.546.324,1.58.706,1.641-.331.565-.087.272.929-.4.88-.067.019-.129.041-.125.12.6.4,1.183-.57,1-1.144,1.006-.15,1.044-.715,1.232-1.58" transform="translate(-649.749 -1590.299)" fill="#5e3dff"/>
        <path id="Path_94" data-name="Path 94" d="M770.712,1723.038c-.6-1.373,1.48-2.988,2.224-4.136C775.435,1716.842,771.363,1722.7,770.712,1723.038Z" transform="translate(-757.989 -1675.694)" fill="#5e3dff"/>
        <path id="Path_95" data-name="Path 95" d="M758.063,1721.652a3.379,3.379,0,0,1,1.363-2.017C760.174,1720.106,758.759,1721.969,758.063,1721.652Z" transform="translate(-746.431 -1676.773)" fill="#5e3dff"/>
      </g>
    </g>
  </g>
</svg>
