<svg xmlns="http://www.w3.org/2000/svg" xmlns:xlink="http://www.w3.org/1999/xlink" width="250" height="250" viewBox="0 0 250 250">
  <defs>
    <clipPath id="clip-menu">
      <rect width="250" height="250"/>
    </clipPath>
  </defs>
  <g id="menu" clip-path="url(#clip-menu)">
    <g id="Icon_ionic-ios-menu" data-name="Icon ionic-ios-menu" transform="translate(-4.5 41.958)">
      <path id="Path_111" data-name="Path 111" d="M177.862,43.5H-19.189A13.351,13.351,0,0,1-32.5,30.186h0A13.351,13.351,0,0,1-19.189,16.875H177.862a13.351,13.351,0,0,1,13.311,13.311h0A13.351,13.351,0,0,1,177.862,43.5Z" transform="translate(50.163 52.855)" fill="#131313"/>
      <path id="Path_112" data-name="Path 112" d="M177.862,43.5H-19.189A13.351,13.351,0,0,1-32.5,30.186h0A13.351,13.351,0,0,1-19.189,16.875H177.862a13.351,13.351,0,0,1,13.311,13.311h0A13.351,13.351,0,0,1,177.862,43.5Z" transform="translate(50.163 -4.145)" fill="#131313"/>
      <path id="Path_113" data-name="Path 113" d="M177.862,43.5H-19.189A13.351,13.351,0,0,1-32.5,30.186h0A13.351,13.351,0,0,1-19.189,16.875H177.862a13.351,13.351,0,0,1,13.311,13.311h0A13.351,13.351,0,0,1,177.862,43.5Z" transform="translate(50.163 109.855)" fill="#131313"/>
    </g>
  </g>
</svg>
