<svg xmlns="http://www.w3.org/2000/svg" width="698" height="271" viewBox="0 0 698 271">
  <g id="Group_206" data-name="Group 206" transform="translate(-7013.5 535.5)">
    <path id="Intersection_6" data-name="Intersection 6" d="M31.229,271.682V156.773C44.845,146.28,58.487,136.211,72,126.685c24.624-17.364,49.253-33.233,73.2-47.167,13.152-7.652,26.342-14.862,39.207-21.429,13.607-6.947,27.224-13.365,40.471-19.076C238.829,33,252.751,27.6,266.256,22.976c14.171-4.853,28.28-8.993,41.932-12.306a394.029,394.029,0,0,1,42.128-7.888c7.22-.935,14.4-1.636,21.495-2.1h40.463q6.088.419,12.048,1.093a261.009,261.009,0,0,1,31.561,5.536,245.592,245.592,0,0,1,61.069,23.622C579.4,65.24,650.652,85.117,729.229,90.209V271.682Z" transform="translate(6982.271 -536.182)" fill="#c0b4ff"/>
    <path id="Intersection_5" data-name="Intersection 5" d="M15.663,271.5V252.926c10.733-10.293,25.1-23.633,42.43-38.693,15.68-13.631,31.756-26.9,47.779-39.456,19.077-14.941,38.349-29.064,57.281-41.974,21.736-14.823,43.451-28.338,64.542-40.171,11.5-6.454,23.042-12.53,34.294-18.058,11.858-5.827,23.724-11.206,35.268-15.987,12.121-5.02,24.221-9.52,35.964-13.375,12.289-4.034,24.529-7.474,36.378-10.222a354.582,354.582,0,0,1,36.513-6.529,298.254,298.254,0,0,1,36.368-2.3,260.745,260.745,0,0,1,29.132,1.61,238.082,238.082,0,0,1,28.7,5.022,223.653,223.653,0,0,1,55.534,21.425C603.266,80.2,656.118,97.233,713.663,105.129V271.5Z" transform="translate(6997.837 -536)" fill="#7f64ff"/>
    <path id="Intersection_4" data-name="Intersection 4" d="M87.722,271.5c4.736-4.855,12.394-12.563,22.228-22,11.179-10.724,22.876-21.488,34.766-31.99a1067.076,1067.076,0,0,1,98.718-77.711c20.2-13.973,40.382-26.7,59.974-37.838,10.659-6.058,21.348-11.758,31.771-16.942,10.97-5.456,21.947-10.491,32.629-14.965,11.2-4.693,22.383-8.9,33.238-12.5,11.347-3.765,22.651-6.973,33.6-9.537a324.465,324.465,0,0,1,33.71-6.083,273.166,273.166,0,0,1,33.575-2.137,239.118,239.118,0,0,1,27.434,1.557A218.547,218.547,0,0,1,556.39,46.22a207.235,207.235,0,0,1,52.294,20.726A412.663,412.663,0,0,0,698.5,104.264V271.5Z" transform="translate(7013 -536)" fill="#c0b2ff"/>
    <path id="Intersection_3" data-name="Intersection 3" d="M226.339,271.5c11.787-11.838,30.929-30.326,55.445-51.483a939.44,939.44,0,0,1,88.563-68.033c17.754-11.948,35.476-22.817,52.672-32.3,9.307-5.133,18.64-9.96,27.74-14.346,9.551-4.6,19.11-8.85,28.411-12.619,9.73-3.944,19.448-7.476,28.884-10.5,9.843-3.154,19.653-5.84,29.159-7.986a289.883,289.883,0,0,1,29.235-5.08,246.019,246.019,0,0,1,29.113-1.78,216.173,216.173,0,0,1,24.8,1.408A197.683,197.683,0,0,1,644.8,73.172a187.4,187.4,0,0,1,47.281,18.739q3.19,1.8,6.418,3.529V271.5Z" transform="translate(7013 -536)" fill="#7f64ff"/>
    <path id="Intersection_2" data-name="Intersection 2" d="M388.542,271.5c9.1-9.08,23.815-23.194,42.463-39.163a699.948,699.948,0,0,1,66.375-50.583c13.226-8.822,26.425-16.842,39.228-23.835a392.205,392.205,0,0,1,41.729-19.837c7.222-2.9,14.437-5.489,21.443-7.708,7.3-2.314,14.584-4.285,21.639-5.858a217.183,217.183,0,0,1,21.691-3.723,184.945,184.945,0,0,1,21.6-1.3,162.483,162.483,0,0,1,18.652,1.059,149.681,149.681,0,0,1,15.138,2.545V271.5Z" transform="translate(7013 -536)" fill="#c3b7ff"/>
    <path id="Intersection_1" data-name="Intersection 1" d="M555,271.5c11.939-11.508,24.544-22.739,37.467-33.385A548.39,548.39,0,0,1,645.9,199.029c10.362-6.605,20.695-12.6,30.711-17.8,7.375-3.835,14.7-7.309,21.888-10.381V271.5Z" transform="translate(7013 -536)" fill="#7f64ff"/>
  </g>
</svg>
